<svg id="SvgjsSvg1028" width="288" height="288" xmlns="http://www.w3.org/2000/svg" version="1.1" xmlns:xlink="http://www.w3.org/1999/xlink" xmlns:svgjs="http://svgjs.com/svgjs"><defs id="SvgjsDefs1029"></defs><g id="SvgjsG1030" transform="matrix(1,0,0,1,0,0)"><svg xmlns="http://www.w3.org/2000/svg" width="288" height="288" viewBox="0 0 16 16"><path fill-rule="evenodd" d="M 1.4941406 0.99804688 A 0.50233285 0.50233285 0 0 0 1 1.5078125 L 1 15 L 14.490234 15 A 0.50295 0.50295 0 0 0 14.490234 13.994141 L 2.0039062 13.994141 L 2.0039062 1.5078125 A 0.50233285 0.50233285 0 0 0 1.4941406 0.99804688 z M 3.5 3 C 3.223 3 3 3.223 3 3.5 L 3 12.5 C 3 12.777 3.223 13 3.5 13 L 4.5 13 C 4.777 13 5 12.777 5 12.5 L 5 3.5 C 5 3.223 4.777 3 4.5 3 L 3.5 3 z M 6.5 5 C 6.223 5 6 5.223 6 5.5 L 6 12.5 C 6 12.777 6.223 13 6.5 13 L 7.5 13 C 7.777 13 8 12.777 8 12.5 L 8 5.5 C 8 5.223 7.777 5 7.5 5 L 6.5 5 z M 9.5 7 C 9.223 7 9 7.223 9 7.5 L 9 12.5 C 9 12.777 9.223 13 9.5 13 L 10.5 13 C 10.777 13 11 12.777 11 12.5 L 11 7.5 C 11 7.223 10.777 7 10.5 7 L 9.5 7 z M 12.5 9 C 12.223 9 12 9.223 12 9.5 L 12 12.5 C 12 12.777 12.223 13 12.5 13 L 13.5 13 C 13.777 13 14 12.777 14 12.5 L 14 9.5 C 14 9.223 13.777 9 13.5 9 L 12.5 9 z " color="#000" enable-background="accumulate" font-family="sans-serif" font-weight="400" overflow="visible" style="line-height:normal;text-indent:0;text-align:start;text-decoration-line:none;text-decoration-style:solid;text-decoration-color:#000;text-transform:none;block-progression:tb;white-space:normal;isolation:auto;mix-blend-mode:normal;solid-color:#000;solid-opacity:1" fill="#ffffff" class="color000 svgShape"></path></svg></g></svg>